<svg width="285" height="285" fill="none" xmlns="http://www.w3.org/2000/svg">
    <path d="M142.5 0l8.053 14.503 9.807-13.38 6.172 15.399 11.406-12.045 4.193 16.05 12.827-10.52 2.148 16.449 14.044-8.83.07 16.589 15.039-7-2.009 16.467 15.798-5.06-4.058 16.085 16.308-3.04-6.042 15.45 16.561-.972-7.931 14.57 16.552 1.111-9.694 13.462 16.282 3.177-11.305 12.141 15.755 5.192-12.737 10.628 14.98 7.126-13.969 8.948 13.969 8.948-14.98 7.126 12.737 10.628-15.755 5.192 11.305 12.141-16.282 3.177 9.694 13.462-16.552 1.111 7.931 14.57-16.561-.972 6.042 15.45-16.308-3.04 4.058 16.085-15.798-5.06 2.009 16.467-15.039-7-.07 16.589-14.044-8.83-2.148 16.449-12.827-10.52-4.193 16.05-11.406-12.045-6.172 15.398-9.807-13.379L142.5 285l-8.053-14.503-9.807 13.379-6.172-15.398-11.406 12.045-4.193-16.05-12.827 10.52-2.148-16.449-14.044 8.83-.07-16.589-15.04 7 2.01-16.467-15.798 5.06 4.058-16.085-16.308 3.04 6.042-15.45-16.56.972 7.93-14.57-16.552-1.111 9.694-13.462-16.282-3.177 11.305-12.141-15.755-5.192 12.737-10.628-14.98-7.126L14.25 142.5.281 133.552l14.98-7.126-12.737-10.628 15.755-5.192-11.305-12.14 16.282-3.178-9.694-13.462 16.552-1.11-7.93-14.571 16.56.972-6.042-15.45 16.308 3.04-4.058-16.085 15.798 5.06-2.01-16.467 15.04 7 .07-16.589 14.044 8.83 2.148-16.45 12.827 10.521 4.193-16.05 11.406 12.045 6.172-15.398 9.807 13.38L142.5 0z" fill="#C22D63"/>
    <text x="85" y="122"  fill="#ebe691" font-family="sans-serif" font-size="40" font-weight="800" line-height="122.5%">
        Зима
    </text>
    <text x="92" y="169"  fill="#ebe691" font-family="sans-serif" font-size="40" font-weight="800" line-height="122.5%">
        2023
    </text>
    <text x="120" y="195"  fill="#fff" font-family="sans-serif" font-size="16" font-weight="400" line-height="125%">
        Січень
    </text>
</svg>